<svg width="283.1" height="77.401" viewBox="0 0 283.1 77.401" xmlns="http://www.w3.org/2000/svg"><g id="svgGroup" stroke-linecap="round" fill-rule="evenodd" font-size="9pt" stroke="#000" stroke-width="0.25mm" fill="#000" style="stroke:#000;stroke-width:0.25mm;fill:#000"><path d="M 133.55 76 L 120.65 76 L 120.65 6.3 L 133.55 6.3 L 133.55 35.4 L 156.65 35.4 L 156.65 6.3 L 169.55 6.3 L 169.55 76 L 156.65 76 L 156.65 46.4 L 133.55 46.4 L 133.55 76 Z M 183.7 59.1 L 183.7 26.2 L 196.2 26.2 L 196.2 58 Q 196.2 61.177 197.1 63.453 A 9.441 9.441 0 0 0 197.7 64.7 A 4.987 4.987 0 0 0 201.301 67.171 A 8.25 8.25 0 0 0 202.8 67.3 A 7.93 7.93 0 0 0 206.331 66.522 A 7.994 7.994 0 0 0 208.725 64.7 A 8.947 8.947 0 0 0 210.949 59.971 A 12.41 12.41 0 0 0 211.1 58 L 211.1 26.2 L 223.6 26.2 L 223.6 76 L 212.3 76 L 212.05 69.55 A 18.418 18.418 0 0 1 208.88 73.323 A 22.657 22.657 0 0 1 207.025 74.85 Q 204.364 76.82 200.103 77.139 A 22.85 22.85 0 0 1 198.4 77.2 Q 192.269 77.2 188.76 74.019 A 11.25 11.25 0 0 1 187.275 72.375 Q 183.7 67.55 183.7 59.1 Z M 249.8 66.1 L 249.8 76 L 238.8 76 L 238.8 0 L 250.8 0 L 250.8 26.2 L 249.8 34.8 A 11.449 11.449 0 0 1 251.278 31.228 A 10.349 10.349 0 0 1 252.975 29.2 Q 255.35 27 258.4 25.95 Q 261.45 24.9 264.3 24.9 A 20.828 20.828 0 0 1 270.156 25.677 A 15.061 15.061 0 0 1 278.35 31.475 Q 283.1 38.05 283.1 50.9 A 49.408 49.408 0 0 1 282.732 57.119 Q 282.332 60.265 281.498 62.912 A 24.689 24.689 0 0 1 280.425 65.725 A 23.783 23.783 0 0 1 277.757 70.26 A 17.601 17.601 0 0 1 273.225 74.5 Q 268.7 77.4 263.2 77.4 A 13.993 13.993 0 0 1 259.031 76.806 A 11.261 11.261 0 0 1 254.375 74 Q 250.95 70.6 249.8 66.1 Z M 12.8 76 L 0 76 L 0 6.3 L 36.4 6.3 L 36.4 17.3 L 12.8 17.3 L 12.8 35.6 L 33.4 35.6 L 33.4 46.8 L 12.8 46.8 L 12.8 76 Z M 81 76 L 67.2 76 L 77.5 57.6 L 81.2 51.5 L 77.4 45.1 L 67.2 26.2 L 81.4 26.2 L 87.4 38.8 L 89.9 44.6 L 92.5 38.8 L 98.4 26.2 L 111.7 26.2 L 101.7 44.7 L 98.1 51 L 101.7 57 L 112.5 76 L 98.4 76 L 91.2 62.6 L 89 58.1 L 87.2 62.6 L 81 76 Z M 58.5 76 L 45.5 76 L 45.5 26.2 L 58.5 26.2 L 58.5 76 Z M 260.3 67.5 A 7.49 7.49 0 0 0 264.053 66.473 A 9.672 9.672 0 0 0 264.975 65.875 Q 266.737 64.588 267.982 62.031 A 17.992 17.992 0 0 0 268.6 60.6 A 18.094 18.094 0 0 0 269.439 57.596 Q 269.737 56.073 269.877 54.278 A 43.655 43.655 0 0 0 270 50.9 A 39.73 39.73 0 0 0 269.801 46.769 Q 269.25 41.517 267.175 38.8 Q 264.35 35.1 260.5 35.1 Q 255.85 35.1 253.425 39.875 Q 251 44.65 251 51.7 A 33.016 33.016 0 0 0 251.292 56.231 Q 251.624 58.62 252.331 60.602 A 16.096 16.096 0 0 0 253.475 63.125 A 10.386 10.386 0 0 0 255.181 65.409 A 7.004 7.004 0 0 0 260.3 67.5 Z M 59 18.1 L 45 18.1 L 45 4.8 L 59 4.8 L 59 18.1 Z" vector-effect="non-scaling-stroke"/></g></svg>
